<svg xmlns="http://www.w3.org/2000/svg" viewBox="0 0 24 24" width="24" height="24">
  <path d="M12 4a1 1 0 011 1V6a1 1 0 01-2 0V5a1 1 0 011-1zm0 12a1 1 0 011 1v1a1 1 0 01-2 0v-1a1 1 0 011-1zm7.071-2.071a1 1 0 011.414 0l.707.707a1 1 0 01-1.414 1.414l-.707-.707a1 1 0 010-1.414zm-12.142 0a1 1 0 010 1.414l-.707.707a1 1 0 01-1.414-1.414l.707-.707a1 1 0 011.414 0zm10.606-7.071a1 1 0 010 1.414l-.707.707a1 1 0 01-1.414-1.414l.707-.707a1 1 0 011.414 0zm-9.192 0a1 1 0 01-1.414 0l-.707-.707a1 1 0 011.414-1.414l.707.707a1 1 0 010 1.414zM12 8a4 4 0 100 8 4 4 0 000-8zm0-2a6 6 0 110 12A6 6 0 0112 6z"/>
</svg>